<svg width="70" height="60" viewBox="0 0 70 60" fill="none" xmlns="http://www.w3.org/2000/svg">
<path d="M35 0L69.641 60H0.358982L35 0Z" fill="#EDFC74"/>
<path d="M40.125 50.375C41.0938 49.4375 41.5781 48.2578 41.5781 46.8359C41.5781 45.4141 41.1719 44.2031 40.3594 43.2031C39.5469 42.2031 39.1406 41.6797 39.1406 41.6328C39.1406 41.0703 39.9375 40.7891 41.5312 40.7891C43.1406 40.7891 44.4219 40.9844 45.375 41.375C46.3438 41.75 46.8281 42.2891 46.8281 42.9922V43.5547C46.8281 45.9141 46.6719 48.0312 46.3594 49.9062C46.0469 51.7656 45.7344 52.9297 45.4219 53.3984C44.9219 54.1641 43.9609 54.7812 42.5391 55.25C40.1953 56.0156 38.1641 56.3984 36.4453 56.3984H35.625C33.375 56.3984 31.3281 55.9688 29.4844 55.1094C27.6406 54.2344 26.1641 53.1641 25.0547 51.8984C23.9453 50.6172 22.9922 48.9688 22.1953 46.9531C21.4141 44.9219 21.0234 42.7266 21.0234 40.3672V39.4297C21.0234 37.1953 21.3672 35.0312 22.0547 32.9375C23.4141 28.7344 26.0391 25.7812 29.9297 24.0781C31.8672 23.2344 33.9141 22.8125 36.0703 22.8125H36.9844C39.875 22.8125 42.0781 23.2109 43.5938 24.0078C45.1094 24.8047 45.8672 25.9141 45.8672 27.3359C45.8672 28.7422 45.3594 29.4453 44.3438 29.4453L40.9453 28.0156C39.4453 27.3906 37.9453 27.0781 36.4453 27.0781C33.4453 27.0781 31.0469 28.1562 29.25 30.3125C27.4688 32.4688 26.5781 35.4922 26.5781 39.3828C26.5781 41.3047 26.8203 43.0859 27.3047 44.7266C28.7109 49.4297 31.7109 51.7812 36.3047 51.7812C37.8984 51.7812 39.1719 51.3125 40.125 50.375Z" fill="url(#paint0_linear)"/>
<defs>
<linearGradient id="paint0_linear" x1="34.5" y1="10" x2="34.5" y2="64" gradientUnits="userSpaceOnUse">
<stop stop-color="#252525"/>
<stop offset="1" stop-color="#2C2C2C"/>
</linearGradient>
</defs>
</svg>
