<svg width="220" height="71" viewBox="0 0 220 71" fill="none" xmlns="http://www.w3.org/2000/svg">
<path d="M36.2939 42.1406C37.3031 41.1641 37.8076 39.9352 37.8076 38.4541C37.8076 36.973 37.3844 35.7116 36.5381 34.6699C35.6917 33.6283 35.2686 33.083 35.2686 33.0342C35.2686 32.4482 36.0986 32.1553 37.7588 32.1553C39.4352 32.1553 40.7699 32.3587 41.7627 32.7656C42.7718 33.1562 43.2764 33.7178 43.2764 34.4502V35.0361C43.2764 37.4938 43.1136 39.6992 42.7881 41.6523C42.4626 43.5892 42.137 44.8018 41.8115 45.29C41.2907 46.0876 40.2897 46.7305 38.8086 47.2188C36.3672 48.0163 34.2513 48.415 32.4609 48.415H31.6064C29.2627 48.415 27.1305 47.9674 25.21 47.0723C23.2894 46.1608 21.7513 45.0459 20.5957 43.7275C19.4401 42.3929 18.4473 40.6758 17.6172 38.5762C16.8034 36.4603 16.3965 34.1735 16.3965 31.7158V30.7393C16.3965 28.4118 16.7546 26.1576 17.4707 23.9766C18.8867 19.5983 21.6211 16.5221 25.6738 14.748C27.6921 13.8691 29.8242 13.4297 32.0703 13.4297H33.0225C36.0335 13.4297 38.3285 13.8447 39.9072 14.6748C41.486 15.5049 42.2754 16.6605 42.2754 18.1416C42.2754 19.6064 41.7464 20.3389 40.6885 20.3389L37.1484 18.8496C35.5859 18.1986 34.0234 17.873 32.4609 17.873C29.3359 17.873 26.8376 18.9961 24.9658 21.2422C23.1104 23.4883 22.1826 26.6377 22.1826 30.6904C22.1826 32.6924 22.4349 34.5479 22.9395 36.2568C24.4043 41.1559 27.5293 43.6055 32.3145 43.6055C33.9746 43.6055 35.3011 43.1172 36.2939 42.1406ZM63.8818 34.0596C66.3558 34.0596 67.5928 33.8236 67.5928 33.3516V33.2051C67.5928 33.0423 67.487 32.5703 67.2754 31.7891C67.0801 30.9915 66.9661 30.5277 66.9336 30.3975C66.901 30.251 66.8604 30.1126 66.8115 29.9824C66.7627 29.8359 66.5186 28.8431 66.0791 27.0039C65.6559 25.1484 65.1025 23.4232 64.4189 21.8281C63.7354 20.2331 63.3447 19.4355 63.2471 19.4355C63.1494 19.4355 62.8646 20.0215 62.3926 21.1934C59.6582 28.0293 58.291 32.0739 58.291 33.3271V33.4736C58.291 33.8643 59.1292 34.0596 60.8057 34.0596H62.4414L62.6611 34.0352L63.4668 34.0596H63.8818ZM77.4072 43.8008V44.2891C77.4072 45.2168 77.0166 46.055 76.2354 46.8037C75.8122 47.2106 75.0309 47.4141 73.8916 47.4141C72.7686 47.4141 71.971 47.113 71.499 46.5107C71.4502 46.4456 71.1328 45.3389 70.5469 43.1904C69.9772 41.042 69.3262 39.5609 68.5938 38.7471C67.8776 37.917 66.4697 37.502 64.3701 37.502C60.3662 37.502 57.9818 37.8519 57.2168 38.5518C56.4681 39.2354 55.7438 40.6921 55.0439 42.9219C54.7835 43.7357 54.6045 44.5169 54.5068 45.2656C54.4092 46.0143 54.2871 46.4945 54.1406 46.7061C53.8477 47.1455 53.2699 47.3652 52.4072 47.3652C51.5609 47.3652 50.8854 47.0153 50.3809 46.3154C49.8763 45.5993 49.624 44.8099 49.624 43.9473C49.624 43.0684 49.917 42.1976 50.5029 41.335C51.1051 40.4561 51.5365 39.6748 51.7969 38.9912C52.0736 38.2913 53.2617 34.849 55.3613 28.6641C57.4772 22.4792 58.8932 18.6217 59.6094 17.0918C60.3418 15.5618 60.9766 14.5934 61.5137 14.1865C62.0671 13.7633 62.7425 13.5518 63.54 13.5518C64.3376 13.5518 65.0618 13.8366 65.7129 14.4062C66.3639 14.9759 67.0638 16.0664 67.8125 17.6777C67.8288 17.7266 70.3678 24.888 75.4297 39.1621C75.7064 39.9434 76.1051 40.7572 76.626 41.6035C77.1468 42.4499 77.4072 43.1823 77.4072 43.8008ZM92.3486 30.4463H92.959C95.5306 30.4463 97.5732 29.8522 99.0869 28.6641C100.601 27.4759 101.357 25.889 101.357 23.9033V22.707C101.357 20.9492 100.78 19.5495 99.624 18.5078C98.4847 17.4499 96.8978 16.9209 94.8633 16.9209H94.0088L93.7891 16.9453L92.959 16.9941C92.666 17.0267 92.4626 17.043 92.3486 17.043C90.9652 17.043 90.2734 17.7021 90.2734 19.0205L90.2002 19.6553L90.1514 20.5586C90.1514 20.7051 90.1514 20.8516 90.1514 20.998L90.127 21.2422V22.3652L90.1025 23.0488V27.1504L90.0781 27.834C90.0781 28.957 90.2165 29.6732 90.4932 29.9824C90.7699 30.2917 91.3883 30.4463 92.3486 30.4463ZM84.8535 21.6572C84.8372 21.1852 84.8291 20.5016 84.8291 19.6064C84.8291 18.695 84.7477 17.7754 84.585 16.8477C84.4222 15.9199 84.3408 15.3503 84.3408 15.1387C84.3408 14.5039 84.9756 14.0726 86.2451 13.8447C87.5146 13.6169 89.7445 13.5029 92.9346 13.5029H94.4482C100.666 13.5029 104.556 15.3828 106.118 19.1426C106.525 20.1354 106.729 21.3643 106.729 22.8291C106.729 24.2777 106.444 25.5879 105.874 26.7598C105.304 27.9154 104.442 29.1035 103.286 30.3242C102.147 31.5286 101.577 32.5378 101.577 33.3516C101.577 34.1491 102.277 35.7848 103.677 38.2588C105.093 40.7165 106.134 42.3034 106.802 43.0195C108.104 44.3867 108.755 45.3389 108.755 45.876V46.3154C108.755 47.0804 108.153 47.4629 106.948 47.4629H106.362C105.256 47.4629 104.238 46.9746 103.311 45.998C102.773 45.4284 101.634 43.695 99.8926 40.7979C98.151 37.8844 97.1826 36.3219 96.9873 36.1104C95.9619 34.971 94.847 34.4014 93.6426 34.4014C92.4382 34.4014 91.5267 35.0443 90.9082 36.3301C90.599 36.9648 90.4443 37.917 90.4443 39.1865C90.4443 40.4561 90.5501 41.6442 90.7617 42.751C90.9733 43.8415 91.0791 44.4681 91.0791 44.6309C91.0791 45.5911 90.6966 46.291 89.9316 46.7305C89.1829 47.1699 88.2471 47.3896 87.124 47.3896C86.001 47.3896 85.2197 47.2188 84.7803 46.877C83.999 46.2747 83.6084 45.4447 83.6084 44.3867C83.6084 43.9798 83.7956 43.3532 84.1699 42.5068C84.5605 41.6442 84.7965 40.8467 84.8779 40.1143C84.9756 39.3818 85.0244 37.7054 85.0244 35.085V28.1514L85 27.4189C84.9837 26.9307 84.9756 26.4424 84.9756 25.9541L84.9023 23.0732L84.8535 21.6572ZM128.433 34.0596C130.907 34.0596 132.144 33.8236 132.144 33.3516V33.2051C132.144 33.0423 132.038 32.5703 131.826 31.7891C131.631 30.9915 131.517 30.5277 131.484 30.3975C131.452 30.251 131.411 30.1126 131.362 29.9824C131.313 29.8359 131.069 28.8431 130.63 27.0039C130.207 25.1484 129.653 23.4232 128.97 21.8281C128.286 20.2331 127.896 19.4355 127.798 19.4355C127.7 19.4355 127.415 20.0215 126.943 21.1934C124.209 28.0293 122.842 32.0739 122.842 33.3271V33.4736C122.842 33.8643 123.68 34.0596 125.356 34.0596H126.992L127.212 34.0352L128.018 34.0596H128.433ZM141.958 43.8008V44.2891C141.958 45.2168 141.567 46.055 140.786 46.8037C140.363 47.2106 139.582 47.4141 138.442 47.4141C137.319 47.4141 136.522 47.113 136.05 46.5107C136.001 46.4456 135.684 45.3389 135.098 43.1904C134.528 41.042 133.877 39.5609 133.145 38.7471C132.428 37.917 131.021 37.502 128.921 37.502C124.917 37.502 122.533 37.8519 121.768 38.5518C121.019 39.2354 120.295 40.6921 119.595 42.9219C119.334 43.7357 119.155 44.5169 119.058 45.2656C118.96 46.0143 118.838 46.4945 118.691 46.7061C118.398 47.1455 117.821 47.3652 116.958 47.3652C116.112 47.3652 115.436 47.0153 114.932 46.3154C114.427 45.5993 114.175 44.8099 114.175 43.9473C114.175 43.0684 114.468 42.1976 115.054 41.335C115.656 40.4561 116.087 39.6748 116.348 38.9912C116.624 38.2913 117.812 34.849 119.912 28.6641C122.028 22.4792 123.444 18.6217 124.16 17.0918C124.893 15.5618 125.527 14.5934 126.064 14.1865C126.618 13.7633 127.293 13.5518 128.091 13.5518C128.888 13.5518 129.613 13.8366 130.264 14.4062C130.915 14.9759 131.615 16.0664 132.363 17.6777C132.38 17.7266 134.919 24.888 139.98 39.1621C140.257 39.9434 140.656 40.7572 141.177 41.6035C141.698 42.4499 141.958 43.1823 141.958 43.8008ZM166.616 42.1406C167.625 41.1641 168.13 39.9352 168.13 38.4541C168.13 36.973 167.707 35.7116 166.86 34.6699C166.014 33.6283 165.591 33.083 165.591 33.0342C165.591 32.4482 166.421 32.1553 168.081 32.1553C169.757 32.1553 171.092 32.3587 172.085 32.7656C173.094 33.1562 173.599 33.7178 173.599 34.4502V35.0361C173.599 37.4938 173.436 39.6992 173.11 41.6523C172.785 43.5892 172.459 44.8018 172.134 45.29C171.613 46.0876 170.612 46.7305 169.131 47.2188C166.689 48.0163 164.574 48.415 162.783 48.415H161.929C159.585 48.415 157.453 47.9674 155.532 47.0723C153.612 46.1608 152.074 45.0459 150.918 43.7275C149.762 42.3929 148.77 40.6758 147.939 38.5762C147.126 36.4603 146.719 34.1735 146.719 31.7158V30.7393C146.719 28.4118 147.077 26.1576 147.793 23.9766C149.209 19.5983 151.943 16.5221 155.996 14.748C158.014 13.8691 160.146 13.4297 162.393 13.4297H163.345C166.356 13.4297 168.651 13.8447 170.229 14.6748C171.808 15.5049 172.598 16.6605 172.598 18.1416C172.598 19.6064 172.069 20.3389 171.011 20.3389L167.471 18.8496C165.908 18.1986 164.346 17.873 162.783 17.873C159.658 17.873 157.16 18.9961 155.288 21.2422C153.433 23.4883 152.505 26.6377 152.505 30.6904C152.505 32.6924 152.757 34.5479 153.262 36.2568C154.727 41.1559 157.852 43.6055 162.637 43.6055C164.297 43.6055 165.623 43.1172 166.616 42.1406ZM193.203 28.1025L196.841 27.4678C198.599 27.4678 199.478 28.2653 199.478 29.8604C199.478 30.7881 199.274 31.5368 198.867 32.1064C198.46 32.6761 197.964 32.9609 197.378 32.9609C196.808 32.9609 196.027 32.8633 195.034 32.668C194.041 32.4727 193.236 32.375 192.617 32.375C190.518 32.375 189.167 32.668 188.564 33.2539C187.962 33.8398 187.661 35.2396 187.661 37.4531C187.661 39.6667 187.954 41.3187 188.54 42.4092C189.142 43.4834 190.322 44.0205 192.08 44.0205C194.489 44.0205 196.572 43.8496 198.33 43.5078C200.104 43.166 201.154 42.9951 201.479 42.9951C202.668 42.9951 203.262 43.4508 203.262 44.3623V44.9727C203.262 46.3398 202.391 47.2025 200.649 47.5605C199.364 47.821 196.344 47.9512 191.592 47.9512H190.664C186.774 47.9512 184.178 47.7721 182.876 47.4141C181.59 47.056 180.947 46.4538 180.947 45.6074V44.9238L181.118 44.2402L181.533 42.8975C181.891 41.4977 182.07 38.5436 182.07 34.0352L182.461 23.2197C182.461 21.055 182.412 19.7285 182.314 19.2402C182.233 18.752 182.07 18.1904 181.826 17.5557C181.598 16.9209 181.484 16.3105 181.484 15.7246C181.484 14.3086 185.382 13.6006 193.179 13.6006H198.55C201.203 13.6006 202.529 14.5039 202.529 16.3105C202.529 16.8965 202.35 17.3441 201.992 17.6533C201.634 17.9463 201.178 18.0928 200.625 18.0928C200.088 18.0928 199.103 18.0277 197.671 17.8975C196.255 17.751 194.684 17.6777 192.959 17.6777C191.25 17.6777 190.07 18.0928 189.419 18.9229C188.556 20.0296 188.125 21.9827 188.125 24.7822C188.125 26.0029 188.483 26.8656 189.199 27.3701C189.932 27.8584 191.266 28.1025 193.203 28.1025Z" fill="url(#paint0_linear)"/>
<path d="M65.0952 67.0732H64.9341C64.4653 67.0732 64.0308 66.9854 63.6304 66.8096C62.8442 66.4629 62.312 65.8843 62.0337 65.0737C61.8774 64.6147 61.7993 64.1265 61.7993 63.6089V63.4404C61.7993 62.8643 61.8848 62.3418 62.0557 61.873C62.3828 60.9746 62.981 60.3325 63.8501 59.9468C64.2651 59.7661 64.7754 59.6758 65.3809 59.6758C65.9863 59.6758 66.4819 59.7979 66.8677 60.042C67.2583 60.2812 67.4536 60.5742 67.4536 60.9209C67.4536 61.2969 67.2632 61.4849 66.8823 61.4849C66.77 61.4849 66.6064 61.4214 66.3916 61.2944C66.1768 61.1675 66.0547 61.0967 66.0254 61.082C65.6836 60.9209 65.3394 60.8403 64.9927 60.8403C64.519 60.8403 64.1284 61.0625 63.8208 61.5068C63.5132 61.9463 63.3594 62.5762 63.3594 63.3965C63.3594 64.2119 63.54 64.8296 63.9014 65.2495C64.2676 65.6694 64.7412 65.8794 65.3223 65.8794C65.6348 65.8794 66.0303 65.811 66.5088 65.6743C66.9922 65.5327 67.2681 65.4619 67.3364 65.4619C67.5317 65.4619 67.6294 65.5693 67.6294 65.7842C67.6294 66.0723 67.3511 66.3604 66.7944 66.6484C66.2427 66.9316 65.6763 67.0732 65.0952 67.0732ZM71.4673 66.0771H71.6943C72.1484 66.0771 72.5488 65.8818 72.8955 65.4912C73.0859 65.2764 73.1812 64.876 73.1812 64.29L73.1885 64.1948V64.0117C73.1885 63.6455 73.0371 63.4624 72.7344 63.4624H72.5L72.1191 63.4917L71.9214 63.5137C71.4722 63.5137 71.1035 63.6406 70.8154 63.8945C70.5273 64.1436 70.3833 64.4414 70.3833 64.7881V65.0444C70.3833 65.3081 70.4761 65.5474 70.6616 65.7622C70.8521 65.9722 71.1206 66.0771 71.4673 66.0771ZM75.1733 66.4287C75.1733 66.7559 74.8438 66.9194 74.1846 66.9194C74.0674 66.9194 73.8525 66.8608 73.54 66.7437C73.2324 66.6216 73.0371 66.5605 72.9541 66.5605C72.876 66.5605 72.6123 66.646 72.1631 66.8169C71.7139 66.9829 71.3184 67.0659 70.9766 67.0659H70.8081C70.2759 67.0659 69.8169 66.8926 69.4312 66.5459C69.0454 66.1943 68.8525 65.7158 68.8525 65.1104C68.8525 63.8799 69.6313 63.1133 71.189 62.8105C72.1997 62.6104 72.7222 62.5029 72.7563 62.4883C72.9956 62.3662 73.1152 62.1465 73.1152 61.8291C73.1152 61.5068 73.0127 61.2383 72.8076 61.0234C72.6074 60.8037 72.3315 60.6938 71.98 60.6938C71.6333 60.6938 71.2231 60.8135 70.7495 61.0527C70.2759 61.2871 69.9512 61.4043 69.7754 61.4043C69.458 61.4043 69.2993 61.187 69.2993 60.7524C69.2993 60.479 69.5483 60.2202 70.0464 59.9761C70.5493 59.7319 71.1206 59.6099 71.7603 59.6099H72.1265C72.605 59.6099 73.0298 59.7002 73.4009 59.8809C73.772 60.0615 74.0552 60.3057 74.2505 60.6133C74.5288 61.0479 74.668 62.0415 74.668 63.5942C74.668 64.4731 74.6851 65.02 74.7192 65.2349C74.7583 65.4497 74.8438 65.667 74.9756 65.8867C75.1074 66.1016 75.1733 66.2822 75.1733 66.4287ZM80.3516 61.2139C79.8926 61.2139 79.5361 61.4434 79.2822 61.9023C79.0283 62.3564 78.9014 63.0522 78.9014 63.9897C78.9014 64.4048 78.9185 64.7002 78.9526 64.876C78.9868 65.0469 79.0381 65.2617 79.1064 65.5205C79.1797 65.7744 79.2163 65.9966 79.2163 66.187C79.2163 66.3726 79.104 66.5435 78.8794 66.6997C78.6548 66.856 78.3618 66.9341 78.0005 66.9341L77.876 66.9268H77.7441C77.5098 66.9268 77.3145 66.8608 77.1582 66.729C77.0068 66.5972 76.9312 66.4482 76.9312 66.2822V66.165C76.9312 66.1309 76.9775 65.9697 77.0703 65.6816C77.1631 65.3936 77.2168 65.1152 77.2314 64.8467C77.2461 64.5781 77.2534 64.2168 77.2534 63.7627V62.9497L77.2461 62.8179C77.2461 62.73 77.2461 62.6421 77.2461 62.5542L77.2314 62.1587C77.2266 62.0708 77.2241 61.8999 77.2241 61.646C77.2241 61.3872 77.1777 61.1431 77.085 60.9136C76.9971 60.6792 76.9531 60.5278 76.9531 60.4595C76.9531 60.1665 77.2095 60.02 77.7222 60.02C78.2349 60.02 78.606 60.1592 78.8354 60.4375C78.9038 60.5205 78.9746 60.562 79.0479 60.562C79.126 60.562 79.2529 60.501 79.4287 60.3789C79.917 60.0469 80.3271 59.8809 80.6592 59.8809H80.7764C81.0693 59.8809 81.2915 59.9468 81.4429 60.0786C81.5991 60.2104 81.6772 60.3862 81.6772 60.606C81.6772 61.0405 81.4355 61.2578 80.9521 61.2578C80.7617 61.2285 80.5615 61.2139 80.3516 61.2139ZM90.1294 67.0732H89.9683C89.4995 67.0732 89.0649 66.9854 88.6646 66.8096C87.8784 66.4629 87.3462 65.8843 87.0679 65.0737C86.9116 64.6147 86.8335 64.1265 86.8335 63.6089V63.4404C86.8335 62.8643 86.9189 62.3418 87.0898 61.873C87.417 60.9746 88.0151 60.3325 88.8843 59.9468C89.2993 59.7661 89.8096 59.6758 90.415 59.6758C91.0205 59.6758 91.5161 59.7979 91.9019 60.042C92.2925 60.2812 92.4878 60.5742 92.4878 60.9209C92.4878 61.2969 92.2974 61.4849 91.9165 61.4849C91.8042 61.4849 91.6406 61.4214 91.4258 61.2944C91.2109 61.1675 91.0889 61.0967 91.0596 61.082C90.7178 60.9209 90.3735 60.8403 90.0269 60.8403C89.5532 60.8403 89.1626 61.0625 88.855 61.5068C88.5474 61.9463 88.3936 62.5762 88.3936 63.3965C88.3936 64.2119 88.5742 64.8296 88.9355 65.2495C89.3018 65.6694 89.7754 65.8794 90.3564 65.8794C90.6689 65.8794 91.0645 65.811 91.543 65.6743C92.0264 65.5327 92.3022 65.4619 92.3706 65.4619C92.5659 65.4619 92.6636 65.5693 92.6636 65.7842C92.6636 66.0723 92.3853 66.3604 91.8286 66.6484C91.2769 66.9316 90.7104 67.0732 90.1294 67.0732ZM97.0654 66.1504H97.2119C97.7051 66.1504 98.1104 65.9331 98.4277 65.4985C98.7451 65.064 98.9038 64.5146 98.9038 63.8506L98.9185 63.6895L98.9258 63.4404V63.1108C98.9258 62.3833 98.7769 61.7852 98.479 61.3164C98.186 60.8428 97.793 60.606 97.2998 60.606H97.1533C96.6699 60.606 96.2622 60.8452 95.9302 61.3237C95.603 61.8022 95.4395 62.437 95.4395 63.228V63.7261C95.4492 63.8433 95.4541 63.9238 95.4541 63.9678C95.4541 64.5244 95.6079 65.0273 95.9155 65.4766C96.2231 65.9258 96.6064 66.1504 97.0654 66.1504ZM100.581 63.2134V63.4551C100.581 63.8896 100.51 64.3364 100.369 64.7954C100.081 65.728 99.5142 66.397 98.6694 66.8022C98.1812 67.0366 97.6978 67.1538 97.2192 67.1538H96.9702C96.5161 67.1538 96.0938 67.061 95.7031 66.8755C94.9268 66.5044 94.4116 65.8892 94.1577 65.0298C94.021 64.5757 93.9526 64.1143 93.9526 63.6455V63.272C93.9526 62.813 94.0234 62.354 94.165 61.895C94.4434 60.9868 94.9951 60.3374 95.8203 59.9468C96.2451 59.7417 96.6797 59.6392 97.124 59.6392H97.4902C97.9102 59.6392 98.3252 59.7295 98.7354 59.9102C99.5557 60.2715 100.107 60.916 100.391 61.8438C100.518 62.2539 100.581 62.7104 100.581 63.2134ZM103.862 65.9819C103.862 66.4019 103.633 66.6118 103.174 66.6118C102.544 66.6118 102.229 66.3091 102.229 65.7036L102.273 65.4546L102.346 65.2129L102.412 64.9639C102.48 64.6611 102.515 64.2778 102.515 63.814L102.537 61.7632C102.537 60.9087 102.539 60.4692 102.544 60.4448C102.588 60.2495 102.756 60.1519 103.049 60.1519L104.441 60.2983C104.597 60.2983 104.841 60.2471 105.173 60.1445C105.51 60.0371 105.876 59.9834 106.272 59.9834C106.667 59.9834 107.141 60.1396 107.693 60.4521C107.913 60.5742 108.042 60.6353 108.081 60.6353C108.262 60.6353 108.572 60.5156 109.011 60.2764C109.456 60.0371 109.878 59.9175 110.278 59.9175C111.187 59.9175 111.804 60.3276 112.131 61.1479C112.302 61.5728 112.4 62.1514 112.424 62.8838L112.439 63.499C112.449 63.9678 112.458 64.3022 112.468 64.5024C112.483 64.7026 112.537 64.9468 112.629 65.2349C112.722 65.5181 112.769 65.75 112.769 65.9307C112.769 66.1113 112.69 66.2749 112.534 66.4214C112.378 66.563 112.18 66.6338 111.941 66.6338C111.541 66.6338 111.309 66.4995 111.245 66.231C111.23 66.1772 111.218 66.0527 111.208 65.8574C111.204 65.6572 111.199 65.5229 111.194 65.4546L111.143 64.9492C111.006 63.3379 110.884 62.3906 110.776 62.1074C110.571 61.5361 110.19 61.2505 109.634 61.2505C109.185 61.2505 108.87 61.4458 108.689 61.8364C108.459 62.3296 108.345 63.2451 108.345 64.583C108.345 64.7783 108.357 64.9639 108.381 65.1396L108.425 65.396C108.479 65.6792 108.506 65.8477 108.506 65.9014C108.506 66.1602 108.406 66.3799 108.206 66.5605C108.01 66.7412 107.722 66.8315 107.341 66.8315C106.96 66.8315 106.721 66.7681 106.624 66.6411C106.531 66.5142 106.484 66.3896 106.484 66.2676C106.484 66.1455 106.509 65.9575 106.558 65.7036C106.611 65.4448 106.641 65.2642 106.646 65.1616C106.655 65.0542 106.66 64.5464 106.66 63.6382C106.66 62.7251 106.606 62.1074 106.499 61.7852C106.348 61.3359 106.05 61.1113 105.605 61.1113C105.273 61.1113 104.973 61.231 104.705 61.4702C104.436 61.7095 104.253 61.9634 104.155 62.2319C103.96 62.7593 103.862 64.0093 103.862 65.9819ZM119.58 63.4111V63.001C119.58 62.2832 119.438 61.7119 119.155 61.2871C118.872 60.8623 118.496 60.6499 118.027 60.6499H117.961L117.888 60.6572C117.668 60.6572 117.432 60.7207 117.178 60.8477C116.929 60.9746 116.721 61.1699 116.555 61.4336C116.389 61.6973 116.306 62.2979 116.306 63.2354V64.0703C116.306 64.7979 116.377 65.2666 116.519 65.4766C116.758 65.833 117.129 66.0112 117.632 66.0112H117.771C118.293 66.0112 118.726 65.7793 119.067 65.3154C119.409 64.8467 119.58 64.2119 119.58 63.4111ZM115.325 70.0542C114.753 70.0542 114.468 69.8491 114.468 69.439C114.468 69.3071 114.504 69.1289 114.578 68.9043C114.651 68.6846 114.7 68.4868 114.724 68.311C114.749 68.1401 114.778 67.6421 114.812 66.8169C114.846 65.9868 114.863 65.1616 114.863 64.3413V62.0708C114.863 61.5532 114.822 61.1577 114.739 60.8843C114.656 60.606 114.614 60.4277 114.614 60.3496C114.614 60.0859 114.917 59.9541 115.522 59.9541C115.586 59.9541 115.708 59.9712 115.889 60.0054L116.108 60.0566C116.343 60.0957 116.506 60.1152 116.599 60.1152C116.692 60.1152 116.936 60.0444 117.332 59.9028C117.727 59.7612 118.079 59.6904 118.386 59.6904H118.723C119.08 59.6904 119.424 59.7881 119.756 59.9834C120.088 60.1738 120.354 60.4058 120.554 60.6792C120.974 61.2603 121.184 61.9585 121.184 62.7739V63.1401C121.184 63.6821 121.091 64.2021 120.906 64.7002C120.393 66.082 119.346 66.812 117.764 66.8901C117.314 66.9097 116.975 66.9854 116.746 67.1172C116.516 67.249 116.401 67.4932 116.401 67.8496C116.401 67.9766 116.436 68.1768 116.504 68.4502C116.572 68.7236 116.606 68.9263 116.606 69.0581C116.606 69.3511 116.484 69.5903 116.24 69.7759C116.001 69.9614 115.696 70.0542 115.325 70.0542ZM125.11 66.0771H125.337C125.791 66.0771 126.191 65.8818 126.538 65.4912C126.729 65.2764 126.824 64.876 126.824 64.29L126.831 64.1948V64.0117C126.831 63.6455 126.68 63.4624 126.377 63.4624H126.143L125.762 63.4917L125.564 63.5137C125.115 63.5137 124.746 63.6406 124.458 63.8945C124.17 64.1436 124.026 64.4414 124.026 64.7881V65.0444C124.026 65.3081 124.119 65.5474 124.304 65.7622C124.495 65.9722 124.763 66.0771 125.11 66.0771ZM128.816 66.4287C128.816 66.7559 128.486 66.9194 127.827 66.9194C127.71 66.9194 127.495 66.8608 127.183 66.7437C126.875 66.6216 126.68 66.5605 126.597 66.5605C126.519 66.5605 126.255 66.646 125.806 66.8169C125.356 66.9829 124.961 67.0659 124.619 67.0659H124.451C123.918 67.0659 123.459 66.8926 123.074 66.5459C122.688 66.1943 122.495 65.7158 122.495 65.1104C122.495 63.8799 123.274 63.1133 124.832 62.8105C125.842 62.6104 126.365 62.5029 126.399 62.4883C126.638 62.3662 126.758 62.1465 126.758 61.8291C126.758 61.5068 126.655 61.2383 126.45 61.0234C126.25 60.8037 125.974 60.6938 125.623 60.6938C125.276 60.6938 124.866 60.8135 124.392 61.0527C123.918 61.2871 123.594 61.4043 123.418 61.4043C123.101 61.4043 122.942 61.187 122.942 60.7524C122.942 60.479 123.191 60.2202 123.689 59.9761C124.192 59.7319 124.763 59.6099 125.403 59.6099H125.769C126.248 59.6099 126.672 59.7002 127.043 59.8809C127.415 60.0615 127.698 60.3057 127.893 60.6133C128.171 61.0479 128.311 62.0415 128.311 63.5942C128.311 64.4731 128.328 65.02 128.362 65.2349C128.401 65.4497 128.486 65.667 128.618 65.8867C128.75 66.1016 128.816 66.2822 128.816 66.4287ZM131.357 66.7876C131.353 66.7876 131.345 66.7876 131.335 66.7876C130.774 66.7876 130.493 66.5947 130.493 66.209C130.493 66.0234 130.542 65.7939 130.64 65.5205C130.737 65.2471 130.793 64.9712 130.808 64.6929C130.823 64.4097 130.83 63.9775 130.83 63.3965V62.0269L130.845 61.646C130.854 61.3921 130.859 61.2114 130.859 61.104L130.786 60.3496C130.786 60.1787 130.938 60.0933 131.24 60.0933C131.548 60.0933 131.863 60.1763 132.185 60.3423C132.507 60.5083 132.705 60.5913 132.778 60.5913C132.856 60.5913 133 60.5425 133.21 60.4448C133.425 60.3472 133.677 60.2422 133.965 60.1299C134.258 60.0127 134.558 59.9541 134.866 59.9541H135.056C135.422 59.9541 135.747 60.0542 136.03 60.2544C136.318 60.4497 136.526 60.7231 136.653 61.0747C136.785 61.4214 136.877 62.061 136.931 62.9937L136.953 63.3965L136.968 63.7993C136.982 64.0337 137 64.2876 137.019 64.561C137.039 64.8345 137.104 65.1226 137.217 65.4253C137.329 65.7231 137.385 65.9233 137.385 66.0259C137.385 66.4604 137.053 66.6777 136.389 66.6777C136.106 66.6777 135.898 66.6216 135.767 66.5093C135.635 66.3921 135.569 66.1968 135.569 65.9233L135.583 65.6523C135.583 63.7529 135.447 62.459 135.173 61.7705C134.958 61.2383 134.58 60.9722 134.038 60.9722C133.779 60.9722 133.525 61.0381 133.276 61.1699C133.032 61.2969 132.842 61.5044 132.705 61.7925C132.461 62.3052 132.339 63.2915 132.339 64.7515L132.397 66.0771C132.397 66.2871 132.297 66.458 132.097 66.5898C131.897 66.7217 131.65 66.7876 131.357 66.7876ZM140.125 56.7095H140.366C140.576 56.7095 140.757 56.7729 140.908 56.8999C141.06 57.0269 141.135 57.2124 141.135 57.4565V57.6396C141.135 57.8398 141.069 58.0205 140.938 58.1816C140.806 58.3379 140.637 58.416 140.432 58.416L140.286 58.438H140.044C139.985 58.4233 139.912 58.416 139.824 58.416C139.736 58.416 139.631 58.3574 139.509 58.2402C139.392 58.1182 139.333 57.9839 139.333 57.8374C139.324 57.7983 139.319 57.769 139.319 57.7495L139.304 57.603V57.5664L139.333 57.332C139.333 57.2197 139.397 57.0879 139.524 56.9365C139.651 56.7852 139.851 56.7095 140.125 56.7095ZM140.242 66.978H139.868C139.663 66.978 139.487 66.9194 139.341 66.8022C139.194 66.6851 139.121 66.5581 139.121 66.4214C139.121 66.2798 139.163 66.0771 139.246 65.8135C139.329 65.5498 139.37 65.3154 139.37 65.1104L139.385 64.9272L139.399 64.5464V64.2461L139.407 64.0483V61.668C139.387 61.4043 139.346 61.1821 139.282 61.0015L139.216 60.8623C139.114 60.6084 139.062 60.4692 139.062 60.4448V60.2983C139.062 60.0151 139.355 59.8735 139.941 59.8735H140.205C140.562 59.8735 140.779 60.0127 140.857 60.291C140.876 60.3643 140.886 60.7915 140.886 61.5728V63.2354L140.901 63.7188L140.93 64.2827C140.93 64.8638 141.05 65.3569 141.289 65.7622C141.387 65.9282 141.436 66.1138 141.436 66.3188C141.436 66.519 141.321 66.6802 141.091 66.8022C140.862 66.9194 140.579 66.978 140.242 66.978ZM146.094 66.1504H146.24C146.733 66.1504 147.139 65.9331 147.456 65.4985C147.773 65.064 147.932 64.5146 147.932 63.8506L147.947 63.6895L147.954 63.4404V63.1108C147.954 62.3833 147.805 61.7852 147.507 61.3164C147.214 60.8428 146.821 60.606 146.328 60.606H146.182C145.698 60.606 145.291 60.8452 144.958 61.3237C144.631 61.8022 144.468 62.437 144.468 63.228V63.7261C144.478 63.8433 144.482 63.9238 144.482 63.9678C144.482 64.5244 144.636 65.0273 144.944 65.4766C145.251 65.9258 145.635 66.1504 146.094 66.1504ZM149.609 63.2134V63.4551C149.609 63.8896 149.539 64.3364 149.397 64.7954C149.109 65.728 148.542 66.397 147.698 66.8022C147.209 67.0366 146.726 67.1538 146.248 67.1538H145.999C145.544 67.1538 145.122 67.061 144.731 66.8755C143.955 66.5044 143.44 65.8892 143.186 65.0298C143.049 64.5757 142.981 64.1143 142.981 63.6455V63.272C142.981 62.813 143.052 62.354 143.193 61.895C143.472 60.9868 144.023 60.3374 144.849 59.9468C145.273 59.7417 145.708 59.6392 146.152 59.6392H146.519C146.938 59.6392 147.354 59.7295 147.764 59.9102C148.584 60.2715 149.136 60.916 149.419 61.8438C149.546 62.2539 149.609 62.7104 149.609 63.2134ZM152.056 66.7876C152.051 66.7876 152.043 66.7876 152.034 66.7876C151.472 66.7876 151.191 66.5947 151.191 66.209C151.191 66.0234 151.24 65.7939 151.338 65.5205C151.436 65.2471 151.492 64.9712 151.506 64.6929C151.521 64.4097 151.528 63.9775 151.528 63.3965V62.0269L151.543 61.646C151.553 61.3921 151.558 61.2114 151.558 61.104L151.484 60.3496C151.484 60.1787 151.636 60.0933 151.938 60.0933C152.246 60.0933 152.561 60.1763 152.883 60.3423C153.206 60.5083 153.403 60.5913 153.477 60.5913C153.555 60.5913 153.699 60.5425 153.909 60.4448C154.124 60.3472 154.375 60.2422 154.663 60.1299C154.956 60.0127 155.256 59.9541 155.564 59.9541H155.754C156.121 59.9541 156.445 60.0542 156.729 60.2544C157.017 60.4497 157.224 60.7231 157.351 61.0747C157.483 61.4214 157.576 62.061 157.629 62.9937L157.651 63.3965L157.666 63.7993C157.681 64.0337 157.698 64.2876 157.717 64.561C157.737 64.8345 157.803 65.1226 157.915 65.4253C158.027 65.7231 158.083 65.9233 158.083 66.0259C158.083 66.4604 157.751 66.6777 157.087 66.6777C156.804 66.6777 156.597 66.6216 156.465 66.5093C156.333 66.3921 156.267 66.1968 156.267 65.9233L156.282 65.6523C156.282 63.7529 156.145 62.459 155.872 61.7705C155.657 61.2383 155.278 60.9722 154.736 60.9722C154.478 60.9722 154.224 61.0381 153.975 61.1699C153.73 61.2969 153.54 61.5044 153.403 61.7925C153.159 62.3052 153.037 63.2915 153.037 64.7515L153.096 66.0771C153.096 66.2871 152.996 66.458 152.795 66.5898C152.595 66.7217 152.349 66.7876 152.056 66.7876Z" fill="#79767D"/>
<path d="M19 62H55M164.5 62H202" stroke="#AA9EB7" stroke-linejoin="round"/>
<path d="M19 64H55M164.5 64H202" stroke="#AA9EB7" stroke-linejoin="round"/>
<defs>
<linearGradient id="paint0_linear" x1="110" y1="0" x2="110" y2="46" gradientUnits="userSpaceOnUse">
<stop stop-color="#252525"/>
<stop offset="1" stop-color="#2C2C2C"/>
</linearGradient>
</defs>
</svg>
